<?xml version="1.0" encoding="UTF-8"?>
<mxfile host="app.diagrams.net">
  <diagram id="d1752828298477" name="Page-1">
    <mxGraphModel dx="800" dy="600" grid="1"><root>
      <mxCell id="0"/>
      <mxCell id="1" parent="0"/>
      <mxCell id="table_b1" style="shape=table;container=1;recursiveResize=0;strokeColor=#000;" vertex="1" parent="1">
        <mxGeometry x="60" y="80" width="200" height="30" as="geometry"/>
      </mxCell>
      <mxCell id="r0" style="shape=tableRow;startSize=0;fillColor=none;" vertex="1" parent="table_b1">
        <mxGeometry y="0" width="200" height="30" as="geometry"/>
      </mxCell>
      <mxCell id="c1" value="&lt;b&gt;b1 : Boolean&lt;/b&gt;" style="html=1;verticalAlign=middle;whiteSpace=wrap;overflow=visible;align=center;fillColor=#ADD8E6;strokeColor=none" vertex="1" parent="r0">
        <mxGeometry width="200" height="30" as="geometry"/>
      </mxCell>
      <mxCell id="table_c_b1_becomes_false" style="shape=table;container=1;recursiveResize=0;strokeColor=#000;" vertex="1" parent="1">
        <mxGeometry x="310" y="80" width="200" height="30" as="geometry"/>
      </mxCell>
      <mxCell id="r2" style="shape=tableRow;startSize=0;fillColor=none;" vertex="1" parent="table_c_b1_becomes_false">
        <mxGeometry y="0" width="200" height="30" as="geometry"/>
      </mxCell>
      <mxCell id="c3" value="&lt;b&gt;c_b1_becomes_false : Clock&lt;/b&gt;" style="html=1;verticalAlign=middle;whiteSpace=wrap;overflow=visible;align=center;fillColor=#ADD8E6;strokeColor=none" vertex="1" parent="r2">
        <mxGeometry width="200" height="30" as="geometry"/>
      </mxCell>
      <mxCell id="edge0" style="edgeStyle=orthogonalEdgeStyle;rounded=0;strokeColor=#000;endArrow=classic;endFill=0;" edge="1" source="table_c_b1_becomes_false" target="table_b1" parent="1">
        <mxGeometry relative="1" as="geometry"/>
      </mxCell>
    </root></mxGraphModel>
  </diagram>
</mxfile>